<svg id="Layer_1" data-name="Layer 1" xmlns="http://www.w3.org/2000/svg" viewBox="0 0 1664.47 657.11"><defs><style>.cls-1{fill:#1d74ff;}</style></defs><title>NotaLogo</title><path d="M413.54,656.81H254.82V417.88q0-36.5-30.13-36.5-29.72,0-29.71,36.5V656.81H36.26v-236q0-82.75,54.75-139.41t134.1-56.66q90.83,0,145.57,65.78,42.85,51.36,42.86,143Z" transform="translate(-36.26 -77.52)"/><path d="M706.8,224.78q90,0,154.27,64.72t64.29,155.12q0,91.67-65.14,156.17T703,665.3q-92.1,0-157.45-64.72t-65.36-156q0-93,65.36-156.39T706.8,224.78Zm-4.24,156.6q-25.47,0-43.29,18.46T641.44,445q0,26.32,18,45t43.08,18.67q25.46,0,43.5-18.67t18-45q0-26.73-17.82-45.2T702.56,381.38Z" transform="translate(-36.26 -77.52)"/><path d="M1132.89,77.52V239.63h71.3V407.27h-71.3q0,50.51,15.91,69.6t58.36,19.1V662.75q-12.32.42-18.25.43a215.72,215.72,0,0,1-101.64-25q-47.74-25-76.61-67.9-36.49-54.75-36.49-145.15V77.52Z" transform="translate(-36.26 -77.52)"/><path d="M1517.39,498.09V662.33a209.88,209.88,0,0,1-35.65,3.39q-95.49,0-159.15-62.81t-63.66-157.45q0-92.08,64.3-156.17t156.39-64.09q102.69,0,161.9,60.06t59.2,164V656.81H1542V460.74q0-33.51-16.34-53.47t-43.92-19.95q-25,0-43.29,18.25t-18.25,43.29q0,26.33,16.55,43.29t42,17A72,72,0,0,0,1517.39,498.09Z" transform="translate(-36.26 -77.52)"/><path class="cls-1" d="M413.54,725.71H254.82V486.78q0-36.5-30.13-36.5-29.72,0-29.71,36.5V725.71H36.26v-236Q36.26,407,91,350.34t134.1-56.66q90.83,0,145.57,65.78,42.85,51.36,42.86,143Z" transform="translate(-36.26 -77.52)"/><path class="cls-1" d="M706.8,293.68q90,0,154.27,64.72t64.29,155.11q0,91.68-65.14,156.18T703,734.2q-92.1,0-157.45-64.72t-65.36-156q0-92.94,65.36-156.38T706.8,293.68Zm-4.24,156.6q-25.47,0-43.29,18.46t-17.83,45.2q0,26.32,18,45t43.08,18.68q25.46,0,43.5-18.68t18-45q0-26.73-17.82-45.2T702.56,450.28Z" transform="translate(-36.26 -77.52)"/><path class="cls-1" d="M1132.89,146.42V308.53h71.3V476.17h-71.3q0,50.5,15.91,69.6t58.36,19.1V731.65q-12.32.42-18.25.43a215.72,215.72,0,0,1-101.64-25q-47.74-25-76.61-67.91Q974.17,584.4,974.17,494V146.42Z" transform="translate(-36.26 -77.52)"/><path class="cls-1" d="M1517.39,567V731.23a209.88,209.88,0,0,1-35.65,3.39q-95.49,0-159.15-62.81t-63.66-157.45q0-92.08,64.3-156.17t156.39-64.09q102.69,0,161.9,60.06t59.2,164V725.71H1542V529.64q0-33.52-16.34-53.47t-43.92-19.95q-25,0-43.29,18.25t-18.25,43.29q0,26.31,16.55,43.29t42,17A72,72,0,0,0,1517.39,567Z" transform="translate(-36.26 -77.52)"/></svg>